<?xml version="1.0" encoding="UTF-8" standalone="no"?>
<!-- Created with Inkscape (http://www.inkscape.org/) -->

<svg
   width="1000"
   height="600"
   viewBox="0 0 264.58333 158.75"
   version="1.1"
   id="svg1"
   inkscape:version="1.3 (0e150ed6c4, 2023-07-21)"
   sodipodi:docname="Logotipo_italentoSuperBold.svg"
   xml:space="preserve"
   xmlns:inkscape="http://www.inkscape.org/namespaces/inkscape"
   xmlns:sodipodi="http://sodipodi.sourceforge.net/DTD/sodipodi-0.dtd"
   xmlns="http://www.w3.org/2000/svg"
   xmlns:svg="http://www.w3.org/2000/svg"><sodipodi:namedview
     id="namedview1"
     pagecolor="#ffffff"
     bordercolor="#eeeeee"
     borderopacity="1"
     inkscape:showpageshadow="0"
     inkscape:pageopacity="0"
     inkscape:pagecheckerboard="false"
     inkscape:deskcolor="#6f6f6f"
     inkscape:document-units="px"
     inkscape:zoom="0.84216418"
     inkscape:cx="478.52902"
     inkscape:cy="375.81746"
     inkscape:window-width="1920"
     inkscape:window-height="991"
     inkscape:window-x="-9"
     inkscape:window-y="-9"
     inkscape:window-maximized="1"
     inkscape:current-layer="layer1"
     inkscape:clip-to-page="false"
     inkscape:lockguides="false"
     showgrid="true"
     showguides="true"><sodipodi:guide
       position="0,600"
       orientation="0,3779.5276"
       id="guide1"
       inkscape:locked="false" /><sodipodi:guide
       position="999.99999,600"
       orientation="2267.7165,0"
       id="guide2"
       inkscape:locked="false" /><sodipodi:guide
       position="999.99999,4.5776365e-06"
       orientation="0,-3779.5276"
       id="guide3"
       inkscape:locked="false" /><sodipodi:guide
       position="0,4.5776365e-06"
       orientation="-2267.7165,0"
       id="guide4"
       inkscape:locked="false" /><inkscape:grid
       id="grid4"
       units="px"
       originx="0"
       originy="0"
       spacingx="1.3229167"
       spacingy="1.3229167"
       empcolor="#0099e5"
       empopacity="0.30196078"
       color="#0099e5"
       opacity="0.14901961"
       empspacing="2"
       dotted="false"
       gridanglex="30"
       gridanglez="30"
       visible="true"
       enabled="true"
       snapvisiblegridlinesonly="true" /><sodipodi:guide
       position="77.05037,110.52479"
       orientation="0,-1"
       id="guide5"
       inkscape:locked="false" /></sodipodi:namedview><defs
     id="defs1" /><g
     inkscape:label="Capa 1"
     inkscape:groupmode="layer"
     id="layer1"
     style="display:inline"><path
       id="rect5"
       style="opacity:1;fill:#23867f;fill-opacity:1;stroke-width:6.44283;stroke-linecap:round;paint-order:stroke fill markers"
       d="M 26.458333 13.229167 C 19.129431 13.229167 13.229167 19.129431 13.229167 26.458333 L 13.229167 44.979166 L 119.0625 44.979166 C 134.13913 45.000516 146.31919 44.984466 161.39583 44.979166 L 127 31.75 L 187.85417 31.75 L 205.05208 37.041666 C 205.05208 37.041666 226.21875 38.364583 227.54167 38.364583 C 230.18748 38.364583 245.04086 44.926973 245.04086 44.926973 C 250.96927 44.960143 251.35417 44.979166 251.35417 44.979166 L 251.35417 26.458333 C 251.35417 19.129431 245.45388 13.229167 238.125 13.229167 L 26.458333 13.229167 z M 206.375 38.364583 C 206.375 38.364583 214.3125 42.333335 219.60417 43.65625 C 224.89581 44.979163 242.09375 44.979166 242.09375 44.979166 C 242.09375 44.979166 228.86458 39.6875 226.21875 39.6875 C 224.89583 39.6875 206.375 38.364583 206.375 38.364583 z M 140.39453 45.971354 C 128.32293 45.971354 120.38542 46.302083 120.38542 46.302083 C 120.38542 46.302083 165.36457 47.097407 165.36458 47.625 C 165.36458 48.152591 120.38542 48.947916 120.38542 48.947916 C 120.38542 48.947916 152.13549 50.270827 185.20833 47.625 C 168.67191 46.302085 152.46613 45.971354 140.39453 45.971354 z M 147.33106 50.231559 C 138.01268 50.218472 126.7681 50.218484 119.0625 50.270833 L 68.360168 50.270833 L 68.360168 101.93331 L 58.882194 101.93331 L 58.882194 50.270833 L 13.229167 50.270833 L 13.229167 133.39134 C 13.229167 140.72022 19.12953 146.65858 26.458333 146.62051 L 238.125 145.52083 C 245.45378 145.48273 251.35417 139.62055 251.35417 132.29167 L 251.35417 50.270833 L 238.125 50.270833 C 189.45976 52.844858 199.1234 58.208333 145.52083 58.208333 L 164.04167 50.270833 C 164.04167 50.270833 156.64944 50.244646 147.33106 50.231559 z M 108.78561 56.674576 L 118.26358 56.674576 L 118.31112 101.93331 L 108.83263 101.93331 L 108.78561 56.674576 z M 187.21855 56.721602 L 196.69704 56.721602 L 196.69704 73.498356 L 206.17501 73.498356 L 206.17501 82.976847 L 196.69704 82.976847 L 196.74406 87.81066 C 196.74406 89.137624 197.20242 90.259077 198.11866 91.175313 C 199.03488 92.09155 200.15634 92.549906 201.48331 92.549906 L 204.75339 92.549906 C 205.22731 92.549906 205.65377 92.533953 206.0329 92.502364 C 206.75957 92.502364 207.43913 92.360382 208.07102 92.076033 C 208.73451 91.760089 209.287 91.333629 209.72932 90.796524 L 216.60125 97.336177 C 215.27428 98.757924 213.71042 99.895326 211.90954 100.74837 C 210.10867 101.56982 208.16567 101.98085 206.08044 101.98085 L 196.88617 101.98085 C 195.5908 101.98085 194.35875 101.72827 193.18976 101.22276 C 192.02077 100.68565 190.99396 99.974716 190.10932 99.090075 C 189.22468 98.205433 188.51375 97.178635 187.97664 96.009643 C 187.47113 94.809057 187.21855 93.561055 187.21855 92.265685 L 187.21855 56.721602 z M 21.06383 61.745068 C 22.390794 61.745068 23.512247 62.203425 24.428483 63.119661 C 25.34472 64.035898 25.802559 65.15735 25.802559 66.484314 C 25.802559 67.811277 25.34472 68.933246 24.428483 69.849483 C 23.512247 70.765719 22.390794 71.223559 21.06383 71.223559 C 19.736867 71.223559 18.614897 70.765719 17.698661 69.849483 C 16.782424 68.933246 16.324585 67.811277 16.324585 66.484314 C 16.324585 65.15735 16.782424 64.035898 17.698661 63.119661 C 18.614897 62.203425 19.736867 61.745068 21.06383 61.745068 z M 135.1349 73.450813 L 139.87415 73.498356 C 141.833 73.498356 143.68134 73.877489 145.41903 74.635754 C 147.15672 75.362424 148.65731 76.373791 149.92108 77.66916 C 151.21645 78.932935 152.22782 80.433521 152.95449 82.171211 C 153.71275 83.908901 154.09189 85.757241 154.09189 87.716092 L 135.08788 87.763118 L 143.33389 84.446008 C 142.98635 83.908903 142.48066 83.52977 141.81718 83.30861 C 141.18529 83.087449 140.53764 82.976847 139.87415 82.976847 L 135.1349 82.929304 C 133.80794 82.929304 132.68649 83.387661 131.77025 84.303898 C 130.85401 85.220135 130.39617 86.341586 130.39617 87.66855 C 130.39617 88.332032 130.5222 88.948318 130.77496 89.517016 C 131.02771 90.085714 131.35952 90.590881 131.77025 91.033203 C 132.21257 91.475523 132.71825 91.823278 133.28695 92.076033 C 133.85565 92.328788 134.47142 92.455338 135.1349 92.455338 L 139.87415 92.455338 C 140.56923 92.455338 141.20146 92.328788 141.77016 92.076033 C 142.37045 91.791683 142.89157 91.41255 143.33389 90.938635 L 150.01617 97.715482 C 148.7208 99.042446 147.20426 100.08519 145.46657 100.84346 C 143.72888 101.57013 141.8646 101.93331 139.87415 101.93331 L 135.1349 101.88577 C 133.17606 101.88577 131.32823 101.52259 129.59054 100.79591 C 127.85285 100.03765 126.33631 99.026799 125.04095 97.763024 C 123.77718 96.467655 122.76581 94.951121 122.00754 93.213431 C 121.28087 91.475741 120.91768 89.627401 120.91768 87.66855 C 120.91768 85.709699 121.28087 83.861359 122.00754 82.123669 C 122.76581 80.385978 123.77718 78.885393 125.04095 77.621618 C 126.33631 76.326249 127.85285 75.314882 129.59054 74.588212 C 131.32823 73.829946 133.17606 73.450813 135.1349 73.450813 z M 16.2295 73.498356 L 25.707991 73.498356 L 25.707991 101.93331 L 16.2295 101.93331 L 16.2295 73.498356 z M 156.46125 73.498356 L 165.93974 73.498356 L 170.67899 73.498356 C 172.63783 73.498356 174.48618 73.877489 176.22387 74.635754 C 177.96156 75.362424 179.47809 76.373791 180.77346 77.66916 C 182.06883 78.932935 183.07968 80.433521 183.80635 82.171211 C 184.56461 83.908901 184.94375 85.757241 184.94375 87.716092 L 184.89621 87.573982 L 184.89621 101.98085 L 175.37069 101.98085 L 175.37069 95.772448 L 175.37069 93.307999 L 175.37069 90.938635 C 175.40229 90.211964 175.41823 89.564299 175.41823 88.995601 L 175.41823 87.573982 C 175.41823 86.9105 175.29168 86.294215 175.03893 85.725516 C 174.78618 85.156818 174.43843 84.667082 173.9961 84.256355 C 173.55378 83.814034 173.04861 83.482228 172.47991 83.261067 C 171.91121 83.008312 171.29492 82.881762 170.63144 82.881762 C 169.30448 82.881762 168.19846 83.340118 167.31382 84.256355 C 166.42917 85.140997 165.98728 86.247019 165.98728 87.573982 L 165.93974 101.93331 L 156.46125 101.93331 L 156.46125 73.498356 z M 229.39685 73.498356 L 234.13609 73.545898 C 236.09494 73.545898 237.94329 73.925032 239.68098 74.683296 C 241.41866 75.409967 242.91926 76.420816 244.18303 77.716186 C 245.4784 78.979961 246.48976 80.480547 247.21643 82.218237 C 247.97469 83.955927 248.35383 85.804267 248.35383 87.763118 C 248.35383 89.721969 247.97469 91.570308 247.21643 93.307999 C 246.48976 95.045689 245.4784 96.562223 244.18303 97.857592 C 242.91926 99.121367 241.41866 100.13273 239.68098 100.891 C 237.94329 101.61766 236.09494 101.98085 234.13609 101.98085 L 229.39685 101.93331 C 227.438 101.93331 225.59017 101.57012 223.85248 100.84346 C 222.1148 100.08519 220.59826 99.074341 219.30289 97.810567 C 218.03912 96.515197 217.02775 94.998664 216.26949 93.260974 C 215.54282 91.523283 215.17963 89.674943 215.17963 87.716092 C 215.17963 85.757241 215.54282 83.908901 216.26949 82.171211 C 217.02775 80.433521 218.03912 78.932418 219.30289 77.668644 C 220.59826 76.373274 222.1148 75.362424 223.85248 74.635754 C 225.59017 73.877489 227.438 73.498356 229.39685 73.498356 z M 87.459261 73.59344 L 96.984777 73.59344 C 98.280147 73.59344 99.49677 73.846023 100.63417 74.351534 C 101.80316 74.857044 102.81401 75.536087 103.66706 76.389135 C 104.52011 77.242183 105.19967 78.25355 105.70518 79.422542 C 106.21068 80.55994 106.46327 81.776045 106.46327 83.071415 L 106.46327 101.93331 L 96.984777 101.93331 L 97.079862 87.763118 C 97.079862 86.436154 96.653402 85.314703 95.800353 84.398465 C 94.9789 83.450634 93.904258 82.976847 92.577294 82.976847 L 87.459261 83.024389 C 86.795779 83.024389 86.179493 83.150423 85.610795 83.403177 C 85.042096 83.655932 84.536929 84.003687 84.094608 84.446008 C 83.683881 84.888328 83.352075 85.409443 83.09932 86.009737 C 82.846565 86.578435 82.720015 87.194721 82.720015 87.858203 C 82.720015 89.185166 83.178371 90.306619 84.094608 91.222855 C 85.010844 92.139092 86.132297 92.597448 87.459261 92.597448 C 88.501874 92.597448 89.418071 92.297021 90.20793 91.696728 C 90.555469 92.328615 90.95055 93.023607 91.392871 93.781872 L 92.719921 96.056669 C 93.162242 96.783339 93.572755 97.494279 93.951887 98.189355 C 94.362614 98.852837 94.710369 99.437226 94.994718 99.942736 C 92.751517 101.36448 90.239565 102.07542 87.459261 102.07542 C 85.500409 102.07542 83.65207 101.71224 81.914379 100.98557 C 80.176689 100.2273 78.660156 99.216453 77.364786 97.952677 C 76.101012 96.657308 75.090161 95.140774 74.331897 93.403084 C 73.605226 91.665393 73.241524 89.817054 73.241524 87.858203 C 73.241524 85.899352 73.605226 84.051012 74.331897 82.313321 C 75.090161 80.575631 76.101012 79.059098 77.364786 77.763728 C 78.660156 76.46836 80.176689 75.457509 81.914379 74.730839 C 83.65207 73.972573 85.500409 73.59344 87.459261 73.59344 z M 28.03033 78.237601 L 42.24755 78.237601 L 42.24755 87.763118 L 28.03033 87.763118 L 28.03033 78.237601 z M 229.39685 82.976847 C 228.06989 82.976847 226.94844 83.434686 226.0322 84.350923 C 225.11596 85.267159 224.65812 86.389129 224.65812 87.716092 C 224.65812 89.043056 225.11596 90.164509 226.0322 91.080745 C 226.94844 91.996982 228.06989 92.455338 229.39685 92.455338 L 234.13609 92.502364 C 235.46306 92.502364 236.58502 92.044523 237.50126 91.128287 C 238.41749 90.21205 238.87534 89.090082 238.87534 87.763118 C 238.87534 86.436154 238.41749 85.314703 237.50126 84.398465 C 236.58502 83.482229 235.46306 83.024389 234.13609 83.024389 L 229.39685 82.976847 z " /></g></svg>
