<?xml version="1.0" encoding="UTF-8" standalone="no"?>
<!-- Created with Inkscape (http://www.inkscape.org/) -->

<svg
   width="1000"
   height="600"
   viewBox="0 0 264.58333 158.75"
   version="1.1"
   id="svg1"
   inkscape:version="1.3 (0e150ed6c4, 2023-07-21)"
   sodipodi:docname="Logotipo_italentoKlenik.svg"
   xml:space="preserve"
   xmlns:inkscape="http://www.inkscape.org/namespaces/inkscape"
   xmlns:sodipodi="http://sodipodi.sourceforge.net/DTD/sodipodi-0.dtd"
   xmlns="http://www.w3.org/2000/svg"
   xmlns:svg="http://www.w3.org/2000/svg"><sodipodi:namedview
     id="namedview1"
     pagecolor="#505050"
     bordercolor="#eeeeee"
     borderopacity="1"
     inkscape:showpageshadow="0"
     inkscape:pageopacity="0"
     inkscape:pagecheckerboard="false"
     inkscape:deskcolor="#505050"
     inkscape:document-units="px"
     inkscape:zoom="1.191"
     inkscape:cx="496.64148"
     inkscape:cy="314.44165"
     inkscape:window-width="1920"
     inkscape:window-height="991"
     inkscape:window-x="-9"
     inkscape:window-y="-9"
     inkscape:window-maximized="1"
     inkscape:current-layer="layer1"
     inkscape:clip-to-page="false"
     inkscape:lockguides="false"
     showgrid="true"
     showguides="false"><sodipodi:guide
       position="0,600"
       orientation="0,3779.5276"
       id="guide1"
       inkscape:locked="false" /><sodipodi:guide
       position="999.99999,600"
       orientation="2267.7165,0"
       id="guide2"
       inkscape:locked="false" /><sodipodi:guide
       position="999.99999,4.5776365e-06"
       orientation="0,-3779.5276"
       id="guide3"
       inkscape:locked="false" /><sodipodi:guide
       position="0,4.5776365e-06"
       orientation="-2267.7165,0"
       id="guide4"
       inkscape:locked="false" /><inkscape:grid
       id="grid4"
       units="px"
       originx="0"
       originy="0"
       spacingx="1.3229167"
       spacingy="1.3229167"
       empcolor="#0099e5"
       empopacity="0.30196078"
       color="#0099e5"
       opacity="0.14901961"
       empspacing="2"
       dotted="false"
       gridanglex="30"
       gridanglez="30"
       visible="true"
       enabled="true"
       snapvisiblegridlinesonly="true" /><sodipodi:guide
       position="77.05037,110.52479"
       orientation="0,-1"
       id="guide5"
       inkscape:locked="false" /></sodipodi:namedview><defs
     id="defs1" /><g
     inkscape:label="Capa 1"
     inkscape:groupmode="layer"
     id="layer1"
     style="display:inline"><path
       id="rect5"
       style="opacity:1;fill:#87CEEB;fill-opacity:1;stroke-width:6.44283;stroke-linecap:round;paint-order:stroke fill markers"
       d="M 26.458333 13.229167 C 19.129438 13.229167 13.229167 19.129438 13.229167 26.458333 L 13.229167 44.979166 L 47.793982 44.979166 L 51.179305 44.979166 L 57.949434 44.979166 L 64.199182 44.979166 L 65.370686 44.979166 L 119.0625 44.979166 L 119.59632 44.979166 C 134.4116 44.999323 146.50932 44.9844 161.39583 44.979166 L 127 31.75 L 187.85417 31.75 L 205.05208 37.041666 C 205.05208 37.041666 226.21875 38.364583 227.54167 38.364583 C 230.18747 38.364583 245.04086 44.926973 245.04086 44.926973 C 250.96926 44.960143 251.35417 44.979166 251.35417 44.979166 L 251.35417 26.458333 C 251.35417 19.129438 245.45387 13.229167 238.125 13.229167 L 26.458333 13.229167 z M 206.375 38.364583 C 206.375 38.364583 214.3125 42.333336 219.60417 43.65625 C 224.8958 44.979161 242.09375 44.979166 242.09375 44.979166 C 242.09375 44.979166 228.86458 39.6875 226.21875 39.6875 C 224.89583 39.6875 206.375 38.364583 206.375 38.364583 z M 140.39453 45.971354 C 128.32294 45.971354 120.38542 46.302083 120.38542 46.302083 C 120.38542 46.302083 165.36457 47.097407 165.36458 47.625 C 165.36458 48.15259 120.38542 48.947916 120.38542 48.947916 C 120.38542 48.947916 152.13553 50.270824 185.20833 47.625 C 168.67193 46.302086 152.46612 45.971354 140.39453 45.971354 z M 147.33106 50.231559 C 138.18865 50.218719 127.28563 50.220882 119.59632 50.270316 L 119.59632 50.270833 L 119.0625 50.270833 L 64.199182 50.270833 L 64.199182 105.80491 L 57.949434 105.80491 L 57.949434 50.270833 L 13.229167 50.270833 L 13.229167 133.39134 C 13.229167 140.72021 19.129537 146.65858 26.458333 146.62051 L 238.125 145.52083 C 245.45377 145.48273 251.35417 139.62054 251.35417 132.29167 L 251.35417 50.270833 L 238.125 50.270833 C 189.45981 52.844855 199.12335 58.208333 145.52083 58.208333 L 164.04167 50.270833 C 164.04167 50.270833 156.64943 50.244646 147.33106 50.231559 z M 109.89768 52.945088 L 116.27766 52.945088 L 116.27766 94.803515 L 116.27766 105.7398 L 109.89768 105.7398 L 109.89768 100.14117 L 109.89768 52.945088 z M 20.387903 61.408138 C 22.145551 61.408138 23.577372 62.83996 23.577372 64.597607 C 23.577372 66.355255 22.145551 67.787593 20.387903 67.787593 C 18.630254 67.787593 17.197917 66.355255 17.197917 64.597607 C 17.197917 62.83996 18.630254 61.408138 20.387903 61.408138 z M 196.73889 64.076709 L 203.11835 64.076709 L 203.11835 69.479996 L 203.11835 70.782242 L 213.59936 70.782242 L 213.59936 76.445463 L 203.11835 76.445463 L 203.11835 83.931827 L 203.11835 86.796252 L 203.11835 87.902644 L 203.11835 88.293318 C 203.11835 94.282341 207.74054 99.165062 213.59936 99.425455 L 213.59936 105.7398 C 204.22524 105.41431 196.73889 97.732539 196.73889 88.293318 L 196.73889 87.902644 L 196.73889 77.161698 L 196.73889 70.782242 L 196.73889 70.456681 L 196.73889 64.076709 z M 138.29182 70.775008 C 144.3673 70.948942 150.03078 74.281146 153.05784 79.700561 C 153.05784 79.700561 153.96921 81.588165 155.33625 85.689343 L 149.28236 87.707824 L 147.58996 88.293318 L 128.77612 94.738403 C 131.51024 98.579189 136.65314 100.40179 141.34021 98.774332 C 143.55355 97.993156 145.37644 96.626277 146.67838 94.868627 L 152.34212 97.992984 C 150.25898 101.05259 147.19897 103.52626 143.42329 104.82823 C 134.30956 107.95292 124.34985 103.00567 121.22516 93.891943 C 118.16554 84.778214 123.04772 74.818005 132.16144 71.693298 C 134.19576 71.009769 136.26665 70.71703 138.29182 70.775008 z M 86.592647 70.782242 C 96.292258 70.782242 104.10424 78.593707 104.10424 88.293318 L 104.10424 105.7398 L 97.724267 105.7398 L 97.724267 101.76898 C 94.664658 104.24271 90.824022 105.7398 86.592647 105.7398 C 76.958132 105.7398 69.146167 97.927832 69.146167 88.293318 C 69.146167 78.593707 76.958132 70.782242 86.592647 70.782242 z M 158.59135 70.782242 L 164.97081 70.782242 L 164.97081 74.818172 C 167.96531 72.344445 171.87157 70.847355 176.03783 70.847355 C 185.47705 70.847355 193.15831 78.333703 193.4838 87.707824 L 193.4838 105.7398 L 187.10434 105.7398 L 187.10434 101.76898 L 187.10434 89.20489 L 187.10434 87.707824 L 187.16945 87.707824 C 186.84396 81.848998 181.96177 77.161698 176.03783 77.161698 C 170.24411 77.161698 165.4265 81.653619 164.97081 87.31715 L 164.97081 88.293318 L 164.97081 105.7398 L 158.59135 105.7398 L 158.59135 70.782242 z M 17.197917 70.847355 L 23.577372 70.847355 L 23.577372 105.80491 L 17.197917 105.80491 L 17.197917 70.847355 z M 229.93893 70.847355 C 239.57346 70.847355 247.38542 78.658805 247.38542 88.293318 C 247.38542 97.927832 239.57346 105.7398 229.93893 105.7398 C 220.30442 105.7398 212.49245 97.927832 212.49245 88.293318 C 212.49245 78.658805 220.30442 70.847355 229.93893 70.847355 z M 86.592647 77.161698 C 80.473428 77.161698 75.526139 82.1741 75.526139 88.293318 C 75.526139 94.412537 80.473428 99.360343 86.592647 99.360343 C 92.776964 99.360343 97.724267 94.412537 97.724267 88.293318 C 97.724267 82.1741 92.776964 77.161698 86.592647 77.161698 z M 229.93893 77.161698 C 223.81972 77.161698 218.80731 82.1741 218.80731 88.293318 C 218.80731 94.412537 223.81972 99.425455 229.93893 99.425455 C 236.05816 99.425455 241.07056 94.412537 241.07056 88.293318 C 241.07056 82.1741 236.05816 77.161698 229.93893 77.161698 z M 137.82828 77.179785 C 136.64126 77.173682 135.43256 77.35712 134.24452 77.747709 C 129.49235 79.37516 126.56285 83.931833 126.69304 88.683992 L 146.80861 81.84875 C 144.75801 78.919337 141.38935 77.198094 137.82828 77.179785 z M 31.75 82.020833 L 50.270833 82.020833 L 50.270833 88.635416 L 31.75 88.635416 L 31.75 82.020833 z " /></g></svg>
